# Blender v2.80 (sub 75) OBJ File: ''
# www.blender.org
mtllib climbable ring.mtl
o Torus
v 1.250000 0.000000 0.000000
v 1.216506 0.125000 0.000000
v 1.125000 0.216506 0.000000
v 1.000000 0.250000 0.000000
v 0.875000 0.216506 0.000000
v 0.783494 0.125000 0.000000
v 0.750000 0.000000 0.000000
v 0.783494 -0.125000 0.000000
v 0.875000 -0.216506 0.000000
v 1.000000 -0.250000 0.000000
v 1.125000 -0.216506 0.000000
v 1.216506 -0.125000 0.000000
v 1.154849 0.000000 -0.478354
v 1.123905 0.125000 -0.465537
v 1.039364 0.216506 -0.430519
v 0.923880 0.250000 -0.382683
v 0.808395 0.216506 -0.334848
v 0.723854 0.125000 -0.299830
v 0.692910 0.000000 -0.287013
v 0.723854 -0.125000 -0.299830
v 0.808395 -0.216506 -0.334848
v 0.923880 -0.250000 -0.382683
v 1.039364 -0.216506 -0.430519
v 1.123905 -0.125000 -0.465537
v 0.883883 0.000000 -0.883884
v 0.860200 0.125000 -0.860200
v 0.795495 0.216506 -0.795495
v 0.707107 0.250000 -0.707107
v 0.618718 0.216506 -0.618719
v 0.554014 0.125000 -0.554014
v 0.530330 0.000000 -0.530330
v 0.554014 -0.125000 -0.554014
v 0.618718 -0.216506 -0.618719
v 0.707107 -0.250000 -0.707107
v 0.795495 -0.216506 -0.795495
v 0.860200 -0.125000 -0.860200
v 0.478355 0.000000 -1.154849
v 0.465537 0.125000 -1.123905
v 0.430519 0.216506 -1.039364
v 0.382684 0.250000 -0.923879
v 0.334848 0.216506 -0.808394
v 0.299830 0.125000 -0.723854
v 0.287013 0.000000 -0.692910
v 0.299830 -0.125000 -0.723854
v 0.334848 -0.216506 -0.808394
v 0.382684 -0.250000 -0.923879
v 0.430519 -0.216506 -1.039364
v 0.465537 -0.125000 -1.123905
v 0.000000 0.000000 -1.250000
v 0.000000 0.125000 -1.216506
v 0.000000 0.216506 -1.125000
v 0.000000 0.250000 -1.000000
v 0.000000 0.216506 -0.875000
v 0.000000 0.125000 -0.783494
v 0.000000 0.000000 -0.750000
v 0.000000 -0.125000 -0.783494
v 0.000000 -0.216506 -0.875000
v 0.000000 -0.250000 -1.000000
v 0.000000 -0.216506 -1.125000
v 0.000000 -0.125000 -1.216506
v -0.478354 0.000000 -1.154849
v -0.465537 0.125000 -1.123905
v -0.430519 0.216506 -1.039364
v -0.382684 0.250000 -0.923880
v -0.334848 0.216506 -0.808395
v -0.299830 0.125000 -0.723854
v -0.287013 0.000000 -0.692910
v -0.299830 -0.125000 -0.723854
v -0.334848 -0.216506 -0.808395
v -0.382684 -0.250000 -0.923880
v -0.430519 -0.216506 -1.039364
v -0.465537 -0.125000 -1.123905
v -0.883884 0.000000 -0.883883
v -0.860200 0.125000 -0.860200
v -0.795495 0.216506 -0.795495
v -0.707107 0.250000 -0.707107
v -0.618719 0.216506 -0.618718
v -0.554014 0.125000 -0.554013
v -0.530330 0.000000 -0.530330
v -0.554014 -0.125000 -0.554013
v -0.618719 -0.216506 -0.618718
v -0.707107 -0.250000 -0.707107
v -0.795495 -0.216506 -0.795495
v -0.860200 -0.125000 -0.860200
v -1.154849 0.000000 -0.478354
v -1.123905 0.125000 -0.465537
v -1.039364 0.216506 -0.430519
v -0.923880 0.250000 -0.382683
v -0.808395 0.216506 -0.334848
v -0.723854 0.125000 -0.299830
v -0.692910 0.000000 -0.287013
v -0.723854 -0.125000 -0.299830
v -0.808395 -0.216506 -0.334848
v -0.923880 -0.250000 -0.382683
v -1.039364 -0.216506 -0.430519
v -1.123905 -0.125000 -0.465537
v -1.250000 0.000000 -0.000000
v -1.216506 0.125000 -0.000000
v -1.125000 0.216506 -0.000000
v -1.000000 0.250000 -0.000000
v -0.875000 0.216506 -0.000000
v -0.783494 0.125000 -0.000000
v -0.750000 0.000000 -0.000000
v -0.783494 -0.125000 -0.000000
v -0.875000 -0.216506 -0.000000
v -1.000000 -0.250000 -0.000000
v -1.125000 -0.216506 -0.000000
v -1.216506 -0.125000 -0.000000
v -1.154850 0.000000 0.478354
v -1.123906 0.125000 0.465536
v -1.039365 0.216506 0.430518
v -0.923880 0.250000 0.382683
v -0.808395 0.216506 0.334848
v -0.723854 0.125000 0.299830
v -0.692910 0.000000 0.287012
v -0.723854 -0.125000 0.299830
v -0.808395 -0.216506 0.334848
v -0.923880 -0.250000 0.382683
v -1.039365 -0.216506 0.430518
v -1.123906 -0.125000 0.465536
v -0.883884 0.000000 0.883883
v -0.860200 0.125000 0.860200
v -0.795495 0.216506 0.795495
v -0.707107 0.250000 0.707107
v -0.618719 0.216506 0.618718
v -0.554014 0.125000 0.554013
v -0.530330 0.000000 0.530330
v -0.554014 -0.125000 0.554013
v -0.618719 -0.216506 0.618718
v -0.707107 -0.250000 0.707107
v -0.795495 -0.216506 0.795495
v -0.860200 -0.125000 0.860200
v -0.478354 0.000000 1.154849
v -0.465537 0.125000 1.123905
v -0.430519 0.216506 1.039364
v -0.382684 0.250000 0.923880
v -0.334848 0.216506 0.808395
v -0.299830 0.125000 0.723854
v -0.287013 0.000000 0.692910
v -0.299830 -0.125000 0.723854
v -0.334848 -0.216506 0.808395
v -0.382684 -0.250000 0.923880
v -0.430519 -0.216506 1.039364
v -0.465537 -0.125000 1.123905
v 0.000000 0.000000 1.250000
v 0.000000 0.125000 1.216506
v 0.000000 0.216506 1.125000
v 0.000000 0.250000 1.000000
v 0.000000 0.216506 0.875000
v 0.000000 0.125000 0.783494
v 0.000000 0.000000 0.750000
v 0.000000 -0.125000 0.783494
v 0.000000 -0.216506 0.875000
v 0.000000 -0.250000 1.000000
v 0.000000 -0.216506 1.125000
v 0.000000 -0.125000 1.216506
v 0.478355 0.000000 1.154849
v 0.465537 0.125000 1.123905
v 0.430519 0.216506 1.039364
v 0.382684 0.250000 0.923879
v 0.334848 0.216506 0.808394
v 0.299830 0.125000 0.723854
v 0.287013 0.000000 0.692910
v 0.299830 -0.125000 0.723854
v 0.334848 -0.216506 0.808394
v 0.382684 -0.250000 0.923879
v 0.430519 -0.216506 1.039364
v 0.465537 -0.125000 1.123905
v 0.883883 0.000000 0.883884
v 0.860199 0.125000 0.860200
v 0.795495 0.216506 0.795496
v 0.707106 0.250000 0.707107
v 0.618718 0.216506 0.618719
v 0.554013 0.125000 0.554014
v 0.530330 0.000000 0.530330
v 0.554013 -0.125000 0.554014
v 0.618718 -0.216506 0.618719
v 0.707106 -0.250000 0.707107
v 0.795495 -0.216506 0.795496
v 0.860199 -0.125000 0.860200
v 1.154849 0.000000 0.478355
v 1.123905 0.125000 0.465537
v 1.039364 0.216506 0.430519
v 0.923879 0.250000 0.382684
v 0.808394 0.216506 0.334848
v 0.723854 0.125000 0.299830
v 0.692910 0.000000 0.287013
v 0.723854 -0.125000 0.299830
v 0.808394 -0.216506 0.334848
v 0.923879 -0.250000 0.382684
v 1.039364 -0.216506 0.430519
v 1.123905 -0.125000 0.465537
vt 0.500000 0.500000
vt 0.562500 0.500000
vt 0.562500 0.583333
vt 0.500000 0.583333
vt 0.562500 0.666667
vt 0.500000 0.666667
vt 0.562500 0.750000
vt 0.500000 0.750000
vt 0.562500 0.833333
vt 0.500000 0.833333
vt 0.562500 0.916667
vt 0.500000 0.916667
vt 0.562500 1.000000
vt 0.500000 1.000000
vt 0.500000 0.000000
vt 0.562500 0.000000
vt 0.562500 0.083333
vt 0.500000 0.083333
vt 0.562500 0.166667
vt 0.500000 0.166667
vt 0.562500 0.250000
vt 0.500000 0.250000
vt 0.562500 0.333333
vt 0.500000 0.333333
vt 0.562500 0.416667
vt 0.500000 0.416667
vt 0.625000 0.500000
vt 0.625000 0.583333
vt 0.625000 0.666667
vt 0.625000 0.750000
vt 0.625000 0.833333
vt 0.625000 0.916667
vt 0.625000 1.000000
vt 0.625000 0.000000
vt 0.625000 0.083333
vt 0.625000 0.166667
vt 0.625000 0.250000
vt 0.625000 0.333333
vt 0.625000 0.416667
vt 0.687500 0.500000
vt 0.687500 0.583333
vt 0.687500 0.666667
vt 0.687500 0.750000
vt 0.687500 0.833333
vt 0.687500 0.916667
vt 0.687500 1.000000
vt 0.687500 0.000000
vt 0.687500 0.083333
vt 0.687500 0.166667
vt 0.687500 0.250000
vt 0.687500 0.333333
vt 0.687500 0.416667
vt 0.750000 0.500000
vt 0.750000 0.583333
vt 0.750000 0.666667
vt 0.750000 0.750000
vt 0.750000 0.833333
vt 0.750000 0.916667
vt 0.750000 1.000000
vt 0.750000 0.000000
vt 0.750000 0.083333
vt 0.750000 0.166667
vt 0.750000 0.250000
vt 0.750000 0.333333
vt 0.750000 0.416667
vt 0.812500 0.500000
vt 0.812500 0.583333
vt 0.812500 0.666667
vt 0.812500 0.750000
vt 0.812500 0.833333
vt 0.812500 0.916667
vt 0.812500 1.000000
vt 0.812500 0.000000
vt 0.812500 0.083333
vt 0.812500 0.166667
vt 0.812500 0.250000
vt 0.812500 0.333333
vt 0.812500 0.416667
vt 0.875000 0.500000
vt 0.875000 0.583333
vt 0.875000 0.666667
vt 0.875000 0.750000
vt 0.875000 0.833333
vt 0.875000 0.916667
vt 0.875000 1.000000
vt 0.875000 0.000000
vt 0.875000 0.083333
vt 0.875000 0.166667
vt 0.875000 0.250000
vt 0.875000 0.333333
vt 0.875000 0.416667
vt 0.937500 0.500000
vt 0.937500 0.583333
vt 0.937500 0.666667
vt 0.937500 0.750000
vt 0.937500 0.833333
vt 0.937500 0.916667
vt 0.937500 1.000000
vt 0.937500 0.000000
vt 0.937500 0.083333
vt 0.937500 0.166667
vt 0.937500 0.250000
vt 0.937500 0.333333
vt 0.937500 0.416667
vt 1.000000 0.500000
vt 1.000000 0.583333
vt 1.000000 0.666667
vt 1.000000 0.750000
vt 1.000000 0.833333
vt 1.000000 0.916667
vt 1.000000 1.000000
vt 1.000000 0.000000
vt 1.000000 0.083333
vt 1.000000 0.166667
vt 1.000000 0.250000
vt 1.000000 0.333333
vt 1.000000 0.416667
vt 0.000000 0.500000
vt 0.062500 0.500000
vt 0.062500 0.583333
vt 0.000000 0.583333
vt 0.062500 0.666667
vt 0.000000 0.666667
vt 0.062500 0.750000
vt 0.000000 0.750000
vt 0.062500 0.833333
vt 0.000000 0.833333
vt 0.062500 0.916667
vt 0.000000 0.916667
vt 0.062500 1.000000
vt 0.000000 1.000000
vt 0.000000 0.000000
vt 0.062500 0.000000
vt 0.062500 0.083333
vt 0.000000 0.083333
vt 0.062500 0.166667
vt 0.000000 0.166667
vt 0.062500 0.250000
vt 0.000000 0.250000
vt 0.062500 0.333333
vt 0.000000 0.333333
vt 0.062500 0.416667
vt 0.000000 0.416667
vt 0.125000 0.500000
vt 0.125000 0.583333
vt 0.125000 0.666667
vt 0.125000 0.750000
vt 0.125000 0.833333
vt 0.125000 0.916667
vt 0.125000 1.000000
vt 0.125000 0.000000
vt 0.125000 0.083333
vt 0.125000 0.166667
vt 0.125000 0.250000
vt 0.125000 0.333333
vt 0.125000 0.416667
vt 0.187500 0.500000
vt 0.187500 0.583333
vt 0.187500 0.666667
vt 0.187500 0.750000
vt 0.187500 0.833333
vt 0.187500 0.916667
vt 0.187500 1.000000
vt 0.187500 0.000000
vt 0.187500 0.083333
vt 0.187500 0.166667
vt 0.187500 0.250000
vt 0.187500 0.333333
vt 0.187500 0.416667
vt 0.250000 0.500000
vt 0.250000 0.583333
vt 0.250000 0.666667
vt 0.250000 0.750000
vt 0.250000 0.833333
vt 0.250000 0.916667
vt 0.250000 1.000000
vt 0.250000 0.000000
vt 0.250000 0.083333
vt 0.250000 0.166667
vt 0.250000 0.250000
vt 0.250000 0.333333
vt 0.250000 0.416667
vt 0.312500 0.500000
vt 0.312500 0.583333
vt 0.312500 0.666667
vt 0.312500 0.750000
vt 0.312500 0.833333
vt 0.312500 0.916667
vt 0.312500 1.000000
vt 0.312500 0.000000
vt 0.312500 0.083333
vt 0.312500 0.166667
vt 0.312500 0.250000
vt 0.312500 0.333333
vt 0.312500 0.416667
vt 0.375000 0.500000
vt 0.375000 0.583333
vt 0.375000 0.666667
vt 0.375000 0.750000
vt 0.375000 0.833333
vt 0.375000 0.916667
vt 0.375000 1.000000
vt 0.375000 0.000000
vt 0.375000 0.083333
vt 0.375000 0.166667
vt 0.375000 0.250000
vt 0.375000 0.333333
vt 0.375000 0.416667
vt 0.437500 0.500000
vt 0.437500 0.583333
vt 0.437500 0.666667
vt 0.437500 0.750000
vt 0.437500 0.833333
vt 0.437500 0.916667
vt 0.437500 1.000000
vt 0.437500 0.000000
vt 0.437500 0.083333
vt 0.437500 0.166667
vt 0.437500 0.250000
vt 0.437500 0.333333
vt 0.437500 0.416667
vn 0.9486 0.2542 -0.1887
vn 0.7002 0.7002 -0.1393
vn 0.2585 0.9646 -0.0514
vn -0.2585 0.9646 0.0514
vn -0.7002 0.7002 0.1393
vn -0.9486 0.2542 0.1887
vn -0.9486 -0.2542 0.1887
vn -0.7002 -0.7002 0.1393
vn -0.2585 -0.9646 0.0514
vn 0.2585 -0.9646 -0.0514
vn 0.7002 -0.7002 -0.1393
vn 0.9486 -0.2542 -0.1887
vn 0.8042 0.2542 -0.5373
vn 0.5936 0.7002 -0.3966
vn 0.2191 0.9646 -0.1464
vn -0.2191 0.9646 0.1464
vn -0.5936 0.7002 0.3966
vn -0.8042 0.2542 0.5373
vn -0.8042 -0.2542 0.5373
vn -0.5936 -0.7002 0.3966
vn -0.2191 -0.9646 0.1464
vn 0.2191 -0.9646 -0.1464
vn 0.5936 -0.7002 -0.3966
vn 0.8042 -0.2542 -0.5373
vn 0.5373 0.2542 -0.8042
vn 0.3966 0.7002 -0.5936
vn 0.1464 0.9646 -0.2191
vn -0.1464 0.9646 0.2191
vn -0.3966 0.7002 0.5936
vn -0.5373 0.2542 0.8042
vn -0.5373 -0.2542 0.8042
vn -0.3966 -0.7002 0.5936
vn -0.1464 -0.9646 0.2191
vn 0.1464 -0.9646 -0.2191
vn 0.3966 -0.7002 -0.5936
vn 0.5373 -0.2542 -0.8042
vn 0.1887 0.2542 -0.9486
vn 0.1393 0.7002 -0.7002
vn 0.0514 0.9646 -0.2585
vn -0.0514 0.9646 0.2585
vn -0.1393 0.7002 0.7002
vn -0.1887 0.2542 0.9486
vn -0.1887 -0.2542 0.9486
vn -0.1393 -0.7002 0.7002
vn -0.0514 -0.9646 0.2585
vn 0.0514 -0.9646 -0.2585
vn 0.1393 -0.7002 -0.7002
vn 0.1887 -0.2542 -0.9486
vn -0.1887 0.2542 -0.9486
vn -0.1393 0.7002 -0.7002
vn -0.0514 0.9646 -0.2585
vn 0.0514 0.9646 0.2585
vn 0.1393 0.7002 0.7002
vn 0.1887 0.2542 0.9486
vn 0.1887 -0.2542 0.9486
vn 0.1393 -0.7002 0.7002
vn 0.0514 -0.9646 0.2585
vn -0.0514 -0.9646 -0.2585
vn -0.1393 -0.7002 -0.7002
vn -0.1887 -0.2542 -0.9486
vn -0.5373 0.2542 -0.8042
vn -0.3966 0.7002 -0.5936
vn -0.1464 0.9646 -0.2191
vn 0.1464 0.9646 0.2191
vn 0.3966 0.7002 0.5936
vn 0.5373 0.2542 0.8042
vn 0.5373 -0.2542 0.8042
vn 0.3966 -0.7002 0.5936
vn 0.1464 -0.9646 0.2191
vn -0.1464 -0.9646 -0.2191
vn -0.3966 -0.7002 -0.5936
vn -0.5373 -0.2542 -0.8042
vn -0.8042 0.2542 -0.5373
vn -0.5936 0.7002 -0.3966
vn -0.2191 0.9646 -0.1464
vn 0.2191 0.9646 0.1464
vn 0.5936 0.7002 0.3966
vn 0.8042 0.2542 0.5373
vn 0.8042 -0.2542 0.5373
vn 0.5936 -0.7002 0.3966
vn 0.2191 -0.9646 0.1464
vn -0.2191 -0.9646 -0.1464
vn -0.5936 -0.7002 -0.3966
vn -0.8042 -0.2542 -0.5373
vn -0.9486 0.2542 -0.1887
vn -0.7002 0.7002 -0.1393
vn -0.2585 0.9646 -0.0514
vn 0.2585 0.9646 0.0514
vn 0.7002 0.7002 0.1393
vn 0.9486 0.2542 0.1887
vn 0.9486 -0.2542 0.1887
vn 0.7002 -0.7002 0.1393
vn 0.2585 -0.9646 0.0514
vn -0.2585 -0.9646 -0.0514
vn -0.7002 -0.7002 -0.1393
vn -0.9486 -0.2542 -0.1887
usemtl None
s off
f 1/1/1 13/2/1 14/3/1 2/4/1
f 2/4/2 14/3/2 15/5/2 3/6/2
f 3/6/3 15/5/3 16/7/3 4/8/3
f 4/8/4 16/7/4 17/9/4 5/10/4
f 5/10/5 17/9/5 18/11/5 6/12/5
f 6/12/6 18/11/6 19/13/6 7/14/6
f 7/15/7 19/16/7 20/17/7 8/18/7
f 8/18/8 20/17/8 21/19/8 9/20/8
f 9/20/9 21/19/9 22/21/9 10/22/9
f 10/22/10 22/21/10 23/23/10 11/24/10
f 11/24/11 23/23/11 24/25/11 12/26/11
f 12/26/12 24/25/12 13/2/12 1/1/12
f 13/2/13 25/27/13 26/28/13 14/3/13
f 14/3/14 26/28/14 27/29/14 15/5/14
f 15/5/15 27/29/15 28/30/15 16/7/15
f 16/7/16 28/30/16 29/31/16 17/9/16
f 17/9/17 29/31/17 30/32/17 18/11/17
f 18/11/18 30/32/18 31/33/18 19/13/18
f 19/16/19 31/34/19 32/35/19 20/17/19
f 20/17/20 32/35/20 33/36/20 21/19/20
f 21/19/21 33/36/21 34/37/21 22/21/21
f 22/21/22 34/37/22 35/38/22 23/23/22
f 23/23/23 35/38/23 36/39/23 24/25/23
f 24/25/24 36/39/24 25/27/24 13/2/24
f 25/27/25 37/40/25 38/41/25 26/28/25
f 26/28/26 38/41/26 39/42/26 27/29/26
f 27/29/27 39/42/27 40/43/27 28/30/27
f 28/30/28 40/43/28 41/44/28 29/31/28
f 29/31/29 41/44/29 42/45/29 30/32/29
f 30/32/30 42/45/30 43/46/30 31/33/30
f 31/34/31 43/47/31 44/48/31 32/35/31
f 32/35/32 44/48/32 45/49/32 33/36/32
f 33/36/33 45/49/33 46/50/33 34/37/33
f 34/37/34 46/50/34 47/51/34 35/38/34
f 35/38/35 47/51/35 48/52/35 36/39/35
f 36/39/36 48/52/36 37/40/36 25/27/36
f 37/40/37 49/53/37 50/54/37 38/41/37
f 38/41/38 50/54/38 51/55/38 39/42/38
f 39/42/39 51/55/39 52/56/39 40/43/39
f 40/43/40 52/56/40 53/57/40 41/44/40
f 41/44/41 53/57/41 54/58/41 42/45/41
f 42/45/42 54/58/42 55/59/42 43/46/42
f 43/47/43 55/60/43 56/61/43 44/48/43
f 44/48/44 56/61/44 57/62/44 45/49/44
f 45/49/45 57/62/45 58/63/45 46/50/45
f 46/50/46 58/63/46 59/64/46 47/51/46
f 47/51/47 59/64/47 60/65/47 48/52/47
f 48/52/48 60/65/48 49/53/48 37/40/48
f 49/53/49 61/66/49 62/67/49 50/54/49
f 50/54/50 62/67/50 63/68/50 51/55/50
f 51/55/51 63/68/51 64/69/51 52/56/51
f 52/56/52 64/69/52 65/70/52 53/57/52
f 53/57/53 65/70/53 66/71/53 54/58/53
f 54/58/54 66/71/54 67/72/54 55/59/54
f 55/60/55 67/73/55 68/74/55 56/61/55
f 56/61/56 68/74/56 69/75/56 57/62/56
f 57/62/57 69/75/57 70/76/57 58/63/57
f 58/63/58 70/76/58 71/77/58 59/64/58
f 59/64/59 71/77/59 72/78/59 60/65/59
f 60/65/60 72/78/60 61/66/60 49/53/60
f 61/66/61 73/79/61 74/80/61 62/67/61
f 62/67/62 74/80/62 75/81/62 63/68/62
f 63/68/63 75/81/63 76/82/63 64/69/63
f 64/69/64 76/82/64 77/83/64 65/70/64
f 65/70/65 77/83/65 78/84/65 66/71/65
f 66/71/66 78/84/66 79/85/66 67/72/66
f 67/73/67 79/86/67 80/87/67 68/74/67
f 68/74/68 80/87/68 81/88/68 69/75/68
f 69/75/69 81/88/69 82/89/69 70/76/69
f 70/76/70 82/89/70 83/90/70 71/77/70
f 71/77/71 83/90/71 84/91/71 72/78/71
f 72/78/72 84/91/72 73/79/72 61/66/72
f 73/79/73 85/92/73 86/93/73 74/80/73
f 74/80/74 86/93/74 87/94/74 75/81/74
f 75/81/75 87/94/75 88/95/75 76/82/75
f 76/82/76 88/95/76 89/96/76 77/83/76
f 77/83/77 89/96/77 90/97/77 78/84/77
f 78/84/78 90/97/78 91/98/78 79/85/78
f 79/86/79 91/99/79 92/100/79 80/87/79
f 80/87/80 92/100/80 93/101/80 81/88/80
f 81/88/81 93/101/81 94/102/81 82/89/81
f 82/89/82 94/102/82 95/103/82 83/90/82
f 83/90/83 95/103/83 96/104/83 84/91/83
f 84/91/84 96/104/84 85/92/84 73/79/84
f 85/92/85 97/105/85 98/106/85 86/93/85
f 86/93/86 98/106/86 99/107/86 87/94/86
f 87/94/87 99/107/87 100/108/87 88/95/87
f 88/95/88 100/108/88 101/109/88 89/96/88
f 89/96/89 101/109/89 102/110/89 90/97/89
f 90/97/90 102/110/90 103/111/90 91/98/90
f 91/99/91 103/112/91 104/113/91 92/100/91
f 92/100/92 104/113/92 105/114/92 93/101/92
f 93/101/93 105/114/93 106/115/93 94/102/93
f 94/102/94 106/115/94 107/116/94 95/103/94
f 95/103/95 107/116/95 108/117/95 96/104/95
f 96/104/96 108/117/96 97/105/96 85/92/96
f 97/118/6 109/119/6 110/120/6 98/121/6
f 98/121/5 110/120/5 111/122/5 99/123/5
f 99/123/4 111/122/4 112/124/4 100/125/4
f 100/125/3 112/124/3 113/126/3 101/127/3
f 101/127/2 113/126/2 114/128/2 102/129/2
f 102/129/1 114/128/1 115/130/1 103/131/1
f 103/132/12 115/133/12 116/134/12 104/135/12
f 104/135/11 116/134/11 117/136/11 105/137/11
f 105/137/10 117/136/10 118/138/10 106/139/10
f 106/139/9 118/138/9 119/140/9 107/141/9
f 107/141/8 119/140/8 120/142/8 108/143/8
f 108/143/7 120/142/7 109/119/7 97/118/7
f 109/119/18 121/144/18 122/145/18 110/120/18
f 110/120/17 122/145/17 123/146/17 111/122/17
f 111/122/16 123/146/16 124/147/16 112/124/16
f 112/124/15 124/147/15 125/148/15 113/126/15
f 113/126/14 125/148/14 126/149/14 114/128/14
f 114/128/13 126/149/13 127/150/13 115/130/13
f 115/133/24 127/151/24 128/152/24 116/134/24
f 116/134/23 128/152/23 129/153/23 117/136/23
f 117/136/22 129/153/22 130/154/22 118/138/22
f 118/138/21 130/154/21 131/155/21 119/140/21
f 119/140/20 131/155/20 132/156/20 120/142/20
f 120/142/19 132/156/19 121/144/19 109/119/19
f 121/144/30 133/157/30 134/158/30 122/145/30
f 122/145/29 134/158/29 135/159/29 123/146/29
f 123/146/28 135/159/28 136/160/28 124/147/28
f 124/147/27 136/160/27 137/161/27 125/148/27
f 125/148/26 137/161/26 138/162/26 126/149/26
f 126/149/25 138/162/25 139/163/25 127/150/25
f 127/151/36 139/164/36 140/165/36 128/152/36
f 128/152/35 140/165/35 141/166/35 129/153/35
f 129/153/34 141/166/34 142/167/34 130/154/34
f 130/154/33 142/167/33 143/168/33 131/155/33
f 131/155/32 143/168/32 144/169/32 132/156/32
f 132/156/31 144/169/31 133/157/31 121/144/31
f 133/157/42 145/170/42 146/171/42 134/158/42
f 134/158/41 146/171/41 147/172/41 135/159/41
f 135/159/40 147/172/40 148/173/40 136/160/40
f 136/160/39 148/173/39 149/174/39 137/161/39
f 137/161/38 149/174/38 150/175/38 138/162/38
f 138/162/37 150/175/37 151/176/37 139/163/37
f 139/164/48 151/177/48 152/178/48 140/165/48
f 140/165/47 152/178/47 153/179/47 141/166/47
f 141/166/46 153/179/46 154/180/46 142/167/46
f 142/167/45 154/180/45 155/181/45 143/168/45
f 143/168/44 155/181/44 156/182/44 144/169/44
f 144/169/43 156/182/43 145/170/43 133/157/43
f 145/170/54 157/183/54 158/184/54 146/171/54
f 146/171/53 158/184/53 159/185/53 147/172/53
f 147/172/52 159/185/52 160/186/52 148/173/52
f 148/173/51 160/186/51 161/187/51 149/174/51
f 149/174/50 161/187/50 162/188/50 150/175/50
f 150/175/49 162/188/49 163/189/49 151/176/49
f 151/177/60 163/190/60 164/191/60 152/178/60
f 152/178/59 164/191/59 165/192/59 153/179/59
f 153/179/58 165/192/58 166/193/58 154/180/58
f 154/180/57 166/193/57 167/194/57 155/181/57
f 155/181/56 167/194/56 168/195/56 156/182/56
f 156/182/55 168/195/55 157/183/55 145/170/55
f 157/183/66 169/196/66 170/197/66 158/184/66
f 158/184/65 170/197/65 171/198/65 159/185/65
f 159/185/64 171/198/64 172/199/64 160/186/64
f 160/186/63 172/199/63 173/200/63 161/187/63
f 161/187/62 173/200/62 174/201/62 162/188/62
f 162/188/61 174/201/61 175/202/61 163/189/61
f 163/190/72 175/203/72 176/204/72 164/191/72
f 164/191/71 176/204/71 177/205/71 165/192/71
f 165/192/70 177/205/70 178/206/70 166/193/70
f 166/193/69 178/206/69 179/207/69 167/194/69
f 167/194/68 179/207/68 180/208/68 168/195/68
f 168/195/67 180/208/67 169/196/67 157/183/67
f 169/196/78 181/209/78 182/210/78 170/197/78
f 170/197/77 182/210/77 183/211/77 171/198/77
f 171/198/76 183/211/76 184/212/76 172/199/76
f 172/199/75 184/212/75 185/213/75 173/200/75
f 173/200/74 185/213/74 186/214/74 174/201/74
f 174/201/73 186/214/73 187/215/73 175/202/73
f 175/203/84 187/216/84 188/217/84 176/204/84
f 176/204/83 188/217/83 189/218/83 177/205/83
f 177/205/82 189/218/82 190/219/82 178/206/82
f 178/206/81 190/219/81 191/220/81 179/207/81
f 179/207/80 191/220/80 192/221/80 180/208/80
f 180/208/79 192/221/79 181/209/79 169/196/79
f 181/209/90 1/1/90 2/4/90 182/210/90
f 182/210/89 2/4/89 3/6/89 183/211/89
f 183/211/88 3/6/88 4/8/88 184/212/88
f 184/212/87 4/8/87 5/10/87 185/213/87
f 185/213/86 5/10/86 6/12/86 186/214/86
f 186/214/85 6/12/85 7/14/85 187/215/85
f 187/216/96 7/15/96 8/18/96 188/217/96
f 188/217/95 8/18/95 9/20/95 189/218/95
f 189/218/94 9/20/94 10/22/94 190/219/94
f 190/219/93 10/22/93 11/24/93 191/220/93
f 191/220/92 11/24/92 12/26/92 192/221/92
f 192/221/91 12/26/91 1/1/91 181/209/91
